{
	"patcher" : 	{
		"fileversion" : 1,
		"appversion" : 		{
			"major" : 8,
			"minor" : 3,
			"revision" : 1,
			"architecture" : "x64",
			"modernui" : 1
		}
,
		"classnamespace" : "box",
		"rect" : [ 34.0, -1003.0, 1322.0, 969.0 ],
		"bglocked" : 0,
		"openinpresentation" : 0,
		"default_fontsize" : 12.0,
		"default_fontface" : 0,
		"default_fontname" : "Arial",
		"gridonopen" : 1,
		"gridsize" : [ 15.0, 15.0 ],
		"gridsnaponopen" : 1,
		"objectsnaponopen" : 1,
		"statusbarvisible" : 2,
		"toolbarvisible" : 1,
		"lefttoolbarpinned" : 0,
		"toptoolbarpinned" : 0,
		"righttoolbarpinned" : 0,
		"bottomtoolbarpinned" : 0,
		"toolbars_unpinned_last_save" : 0,
		"tallnewobj" : 0,
		"boxanimatetime" : 200,
		"enablehscroll" : 1,
		"enablevscroll" : 1,
		"devicewidth" : 0.0,
		"description" : "",
		"digest" : "",
		"tags" : "",
		"style" : "",
		"subpatcher_template" : "",
		"assistshowspatchername" : 0,
		"boxes" : [ 			{
				"box" : 				{
					"id" : "obj-73",
					"maxclass" : "newobj",
					"numinlets" : 2,
					"numoutlets" : 1,
					"outlettype" : [ "signal" ],
					"patching_rect" : [ 1129.0, 210.0, 40.0, 22.0 ],
					"text" : "*~ 0.3"
				}

			}
, 			{
				"box" : 				{
					"id" : "obj-72",
					"linecount" : 2,
					"maxclass" : "newobj",
					"numinlets" : 2,
					"numoutlets" : 1,
					"outlettype" : [ "signal" ],
					"patching_rect" : [ 1203.0, 612.0, 80.0, 36.0 ],
					"text" : "delay~ 22000 22000"
				}

			}
, 			{
				"box" : 				{
					"id" : "obj-53",
					"maxclass" : "newobj",
					"numinlets" : 1,
					"numoutlets" : 1,
					"outlettype" : [ "bang" ],
					"patching_rect" : [ 1292.0, 588.0, 58.0, 22.0 ],
					"text" : "loadbang"
				}

			}
, 			{
				"box" : 				{
					"id" : "obj-52",
					"linecount" : 3,
					"maxclass" : "message",
					"numinlets" : 2,
					"numoutlets" : 1,
					"outlettype" : [ "" ],
					"patching_rect" : [ 1292.0, 616.0, 140.0, 50.0 ],
					"text" : "0.918161 -1.836321 0.918161 -1.705819 0.759772"
				}

			}
, 			{
				"box" : 				{
					"id" : "obj-51",
					"maxclass" : "newobj",
					"numinlets" : 6,
					"numoutlets" : 1,
					"outlettype" : [ "signal" ],
					"patching_rect" : [ 1203.0, 690.0, 71.5, 22.0 ],
					"text" : "biquad~"
				}

			}
, 			{
				"box" : 				{
					"id" : "obj-49",
					"maxclass" : "newobj",
					"numinlets" : 2,
					"numoutlets" : 1,
					"outlettype" : [ "bang" ],
					"patching_rect" : [ 1224.0, 33.0, 41.0, 22.0 ],
					"text" : "del 10"
				}

			}
, 			{
				"box" : 				{
					"id" : "obj-48",
					"maxclass" : "newobj",
					"numinlets" : 1,
					"numoutlets" : 1,
					"outlettype" : [ "bang" ],
					"patcher" : 					{
						"fileversion" : 1,
						"appversion" : 						{
							"major" : 8,
							"minor" : 3,
							"revision" : 1,
							"architecture" : "x64",
							"modernui" : 1
						}
,
						"classnamespace" : "box",
						"rect" : [ 167.0, 107.0, 640.0, 480.0 ],
						"bglocked" : 0,
						"openinpresentation" : 0,
						"default_fontsize" : 12.0,
						"default_fontface" : 0,
						"default_fontname" : "Arial",
						"gridonopen" : 1,
						"gridsize" : [ 15.0, 15.0 ],
						"gridsnaponopen" : 1,
						"objectsnaponopen" : 1,
						"statusbarvisible" : 2,
						"toolbarvisible" : 1,
						"lefttoolbarpinned" : 0,
						"toptoolbarpinned" : 0,
						"righttoolbarpinned" : 0,
						"bottomtoolbarpinned" : 0,
						"toolbars_unpinned_last_save" : 0,
						"tallnewobj" : 0,
						"boxanimatetime" : 200,
						"enablehscroll" : 1,
						"enablevscroll" : 1,
						"devicewidth" : 0.0,
						"description" : "",
						"digest" : "",
						"tags" : "",
						"style" : "",
						"subpatcher_template" : "",
						"assistshowspatchername" : 0,
						"boxes" : [ 							{
								"box" : 								{
									"id" : "obj-9",
									"maxclass" : "newobj",
									"numinlets" : 1,
									"numoutlets" : 2,
									"outlettype" : [ "bang", "bang" ],
									"patching_rect" : [ 100.599984591997327, 257.20000433921814, 56.0, 22.0 ],
									"text" : "TogEdge"
								}

							}
, 							{
								"box" : 								{
									"id" : "obj-8",
									"maxclass" : "newobj",
									"numinlets" : 2,
									"numoutlets" : 1,
									"outlettype" : [ "int" ],
									"patching_rect" : [ 100.599984591997327, 224.166674062370305, 36.0, 22.0 ],
									"text" : "> 80."
								}

							}
, 							{
								"box" : 								{
									"id" : "obj-85",
									"maxclass" : "newobj",
									"numinlets" : 2,
									"numoutlets" : 2,
									"outlettype" : [ "bang", "" ],
									"patching_rect" : [ 50.0, 100.0, 37.0, 22.0 ],
									"text" : "sel 0."
								}

							}
, 							{
								"box" : 								{
									"format" : 6,
									"id" : "obj-83",
									"maxclass" : "flonum",
									"numinlets" : 1,
									"numoutlets" : 2,
									"outlettype" : [ "", "bang" ],
									"parameter_enable" : 0,
									"patching_rect" : [ 68.0, 186.400008976459503, 50.0, 22.0 ]
								}

							}
, 							{
								"box" : 								{
									"id" : "obj-81",
									"maxclass" : "newobj",
									"numinlets" : 2,
									"numoutlets" : 1,
									"outlettype" : [ "float" ],
									"patching_rect" : [ 68.0, 160.600005873748785, 29.5, 22.0 ],
									"text" : "- 0."
								}

							}
, 							{
								"box" : 								{
									"id" : "obj-80",
									"maxclass" : "newobj",
									"numinlets" : 2,
									"numoutlets" : 2,
									"outlettype" : [ "", "" ],
									"patching_rect" : [ 68.0, 131.199996897289282, 67.0, 22.0 ],
									"text" : "zl stream 2"
								}

							}
, 							{
								"box" : 								{
									"comment" : "",
									"id" : "obj-46",
									"index" : 1,
									"maxclass" : "inlet",
									"numinlets" : 0,
									"numoutlets" : 1,
									"outlettype" : [ "float" ],
									"patching_rect" : [ 50.000026201021228, 40.0, 30.0, 30.0 ]
								}

							}
, 							{
								"box" : 								{
									"comment" : "",
									"id" : "obj-47",
									"index" : 1,
									"maxclass" : "outlet",
									"numinlets" : 1,
									"numoutlets" : 0,
									"patching_rect" : [ 100.600001201021314, 339.200012000000015, 30.0, 30.0 ]
								}

							}
 ],
						"lines" : [ 							{
								"patchline" : 								{
									"destination" : [ "obj-85", 0 ],
									"source" : [ "obj-46", 0 ]
								}

							}
, 							{
								"patchline" : 								{
									"destination" : [ "obj-9", 0 ],
									"source" : [ "obj-8", 0 ]
								}

							}
, 							{
								"patchline" : 								{
									"destination" : [ "obj-81", 0 ],
									"source" : [ "obj-80", 0 ]
								}

							}
, 							{
								"patchline" : 								{
									"destination" : [ "obj-83", 0 ],
									"source" : [ "obj-81", 0 ]
								}

							}
, 							{
								"patchline" : 								{
									"destination" : [ "obj-8", 0 ],
									"source" : [ "obj-83", 0 ]
								}

							}
, 							{
								"patchline" : 								{
									"destination" : [ "obj-80", 0 ],
									"source" : [ "obj-85", 1 ]
								}

							}
, 							{
								"patchline" : 								{
									"destination" : [ "obj-47", 0 ],
									"source" : [ "obj-9", 0 ]
								}

							}
 ]
					}
,
					"patching_rect" : [ 815.80002300000001, 57.0, 82.0, 22.0 ],
					"saved_object_attributes" : 					{
						"description" : "",
						"digest" : "",
						"globalpatchername" : "",
						"tags" : ""
					}
,
					"text" : "p diff-togedge"
				}

			}
, 			{
				"box" : 				{
					"id" : "obj-45",
					"maxclass" : "message",
					"numinlets" : 2,
					"numoutlets" : 1,
					"outlettype" : [ "" ],
					"patching_rect" : [ 1345.0, 88.199996897289282, 29.5, 22.0 ],
					"text" : "1"
				}

			}
, 			{
				"box" : 				{
					"id" : "obj-43",
					"maxclass" : "newobj",
					"numinlets" : 2,
					"numoutlets" : 2,
					"outlettype" : [ "bang", "" ],
					"patching_rect" : [ 1345.0, 46.0, 34.0, 22.0 ],
					"text" : "sel 1"
				}

			}
, 			{
				"box" : 				{
					"id" : "obj-39",
					"maxclass" : "newobj",
					"numinlets" : 0,
					"numoutlets" : 1,
					"outlettype" : [ "" ],
					"patching_rect" : [ 1345.0, 15.0, 33.0, 22.0 ],
					"text" : "r hot"
				}

			}
, 			{
				"box" : 				{
					"id" : "obj-30",
					"maxclass" : "newobj",
					"numinlets" : 2,
					"numoutlets" : 2,
					"outlettype" : [ "bang", "" ],
					"patching_rect" : [ 1003.0, 67.199996897289282, 34.0, 22.0 ],
					"text" : "sel 1"
				}

			}
, 			{
				"box" : 				{
					"id" : "obj-28",
					"maxclass" : "message",
					"numinlets" : 2,
					"numoutlets" : 1,
					"outlettype" : [ "" ],
					"patching_rect" : [ 1140.0, 74.0, 49.0, 22.0 ],
					"text" : "resume"
				}

			}
, 			{
				"box" : 				{
					"id" : "obj-92",
					"maxclass" : "newobj",
					"numinlets" : 2,
					"numoutlets" : 1,
					"outlettype" : [ "float" ],
					"patching_rect" : [ 1303.0, 163.0, 29.5, 22.0 ],
					"text" : "- 1."
				}

			}
, 			{
				"box" : 				{
					"id" : "obj-89",
					"linecount" : 2,
					"maxclass" : "message",
					"numinlets" : 2,
					"numoutlets" : 1,
					"outlettype" : [ "" ],
					"patching_rect" : [ 1303.0, 210.0, 132.0, 36.0 ],
					"text" : "\"Filter 3 LFO Depth for Delay Time\" $1"
				}

			}
, 			{
				"box" : 				{
					"id" : "obj-87",
					"maxclass" : "newobj",
					"numinlets" : 1,
					"numoutlets" : 0,
					"patching_rect" : [ 1265.0, 313.0, 32.0, 22.0 ],
					"text" : "print"
				}

			}
, 			{
				"box" : 				{
					"autosave" : 1,
					"bgmode" : 0,
					"border" : 0,
					"clickthrough" : 0,
					"id" : "obj-86",
					"maxclass" : "newobj",
					"numinlets" : 2,
					"numoutlets" : 8,
					"offset" : [ 0.0, 0.0 ],
					"outlettype" : [ "signal", "signal", "", "list", "int", "", "", "" ],
					"patching_rect" : [ 1180.0, 242.0, 92.5, 22.0 ],
					"save" : [ "#N", "vst~", "loaduniqueid", 0, "stars.vst3", ";" ],
					"saved_attribute_attributes" : 					{
						"valueof" : 						{
							"parameter_invisible" : 1,
							"parameter_longname" : "vst~",
							"parameter_shortname" : "vst~",
							"parameter_type" : 3
						}

					}
,
					"saved_object_attributes" : 					{
						"parameter_enable" : 1,
						"parameter_mappable" : 0
					}
,
					"snapshot" : 					{
						"filetype" : "C74Snapshot",
						"version" : 2,
						"minorversion" : 0,
						"name" : "snapshotlist",
						"origin" : "vst~",
						"type" : "list",
						"subtype" : "Undefined",
						"embed" : 1,
						"snapshot" : 						{
							"pluginname" : "stars.vst3",
							"plugindisplayname" : "the weight of stars",
							"pluginsavedname" : "",
							"pluginsaveduniqueid" : 0,
							"version" : 1,
							"isbank" : 0,
							"isbase64" : 1,
							"blob" : "2550.VMjLgzdB...OVMEUy.Ea0cVZtMEcgQWY9vSRC8Vav8lak4Fc9DCN0biKV0jZLclc0EjKt3xSqX1UgIWPnM1ZIIiXugCaggCRRwDctjFRlQEagkFNFk0azDSV3fjTUQUVTszLHg2S43hPOYUQrI1aEwFVxUkUPI2cFI1YMIiXPUDahcFLVkkdUwlX4QyPOAUQpQUPvPDRuEkUOgFSVoEdMYTXqkEUYsVTrg0YMEiVn4BZic1cVM1ZvjFR1MiTMMiZS4DMpMkSxvTdMICSS4DLXkGSncCZOciKUAkTEQ0TlolQYgCRnk0a2YzXqkzQLQTUFE1YqczTqQSLYo2YVIEcMUEVyEzQgsVSsgjYXcEVxU0UYgCRRwDctjFR0MyPOAUQpQUPvPDRuEkUOgFVVokbQcUV3EzPQs1cVgEM2QUVzMlQi41ZpE1TUECV0QiQYkWRBgTLEYTXvTkUOglKosjctLDS1QzTNQiZS4DMpMkS5o1PMICU40DLHg2R4X2PTETRUAUSAIkVpASZHw1ZFEldUwlX1AEUYIWQVQVUzXkV50TaHYFVWgkbUcUV3fjPLg1Mn8zMtTETRUDUSYlZFkENHgVVucmQisVRGwjQIcUV2U0UYQWSVQFZtf1XmcmUisFLogjLPMjS1MiPLg1Mn8zMtTETRUDUSYlZFkENHgVVucmQisVRGwDSYESXDUkQho2YFE0Z2YEVzDUUZMWUrgjYXcEVxU0UYgCRBwDctjFR0MyPOAUQpQUPvPDRuEkUOgFVVokbQcUV3EzPSwFNFE0ZAczXtkkZhsVQsgjYXcEVxU0UYgCRBwDctjFR0MyPOAUQpQUPvPDRuEkUOgFVVokbQcUV3EzPSwFNwPkcUYUVpkjPHESQFEFLUY0SnQTZKYmKSwjctLDS1AUZMICSCwjcPkFSncCZOciKUAkTEQ0TlolQYgCRnk0a2YzXqkzULQTUFE1YqczTqQSLYo2YVIEcMUEVyEzQgsVSsgjYXcEVxU0UYgCRRwjcXk1RxH1TNQiZC4jLhMkS3oVZMQCR3sTN1MDUAkTUP0TPRokZvjFRrslQgoWUrI1cPQUVxUjUjwTUrEVaQcjVIQSLTsVSwDFcQEiXn4BZic1cVM1ZvjFR1MiPLYmKCwzcpMkSzn1TNQiZC0DMPkWSvH1TMg1Mn8zMtTETRUDUSYlZFkENHgVVucmQisVRWwDQUYTXms1UUQ2ZFMVdIIDRwTjQgASUV8DZtj1R1gDdKkicCQUPIUETMEjTZoFLogDaqYTX5UEahcGVpI1ZEc0XqQSLXQSRBgTLEYTXvTkUOglYS4Ddtj1R1gDdKkicCQUPIUETMEjTZoFLogDaqYTX5UEahcmcpkUcQQUV1E0QZQTUFE1YqcTUuAiUYglKnM1Y2Y0XqASZHY2LBwDZ2f1S23RUPIUQTMkYpYTV3fDZY81cFM1ZIcESLkULgQTUFIldmwVT3UkUhglKnM1Y2Y0XqASZHY2LR0zcpMkSzn1TNMiKS4DdXMUS2wTdMg1Mn8zMtTETRUDUSYlZFkENHgVVucmQisVRWwDSYESXSEzUYsVTrgjYXcEVxU0UYgCRRwDclMDS1o1TNQiZS4DMtLTSwvTZLECR3sTN1MDUAkTUP0TPRokZvjFRrslQgoWUrIFdPQUVxUjUjwTUrEVaQcjVIQSLTcFLFIlbUEiXn4BZic1cVM1ZvjFR2Q0PMQGVS4jctLDS3A0PMcGTCwTLHkFR0MyPOAUQpQUPvPDRuEkUOgFVVokbQcUV3kzPQs1cVgEM2QUVzMlQi41ZpE1TUECV0QiQYkWRBgTLEYTXvTkUOgFQosTdtLDS1QzTNQiXS4jdhkVSzfzTNg1Mn8zMtTETRUDUSYlZFkENHgVVucmQisVRswDQUYTXms1UUQ2ZFMVdIIDRwTjQgASUV8DZDkFR0MyPOAUQpQUPvPDRuEkUOgFVVokbQcUV3kTZQgWUVIFLUwVXosVaHYFVWgkbUcUV3fDZLEiYCwDctjFR0MyPOAUQpQUPvPDRuEkUOgFVVokbQcUV3kzPSwFNFE0ZAczXtEEUYIWQVQFUqYUXqkjPHESQFEFLUY0Sn4RZKYGR3sTN1MDUAkTUP0TPRokZvjFRrslQgoWUrIFd1oVV0EEUYYWTGokQIcUV2kjPHESQFEFLUY0Sn4RZKYGR3sTN1MDUAkTUP0TPRokZvjFRrslQgoWUrIFd1oVV00TQhsVUFkEZtf1XmcmUisFLogzcyHDS1QzPLYmKCwjdXkWS44xPLoGRogTcyLzSPUjZTEDLDgzaQY0SngkUZIWTWkEdMMTTqcmUXQycTkEciYzXtslZgMUQVElc2YUV4kjPHESQFEFLUY0SnQzTMg2Ln0DMpMkSzf0TNomYowjdHkFSncCZOciKUAkTEQ0TlolQYgCRnk0a2YzXqkjLLQTUFE1YqczTqQSLYo2YVIEcMUUVogCagoVSsgjYXcEVxU0UYgCRBwDctLDS14xTLQiZS4DMpMkSz.0TNomXS0jLTkFR0MyPOAUQpQUPvPDRuEkUOgFVVokbQcUV30zPQs1cVgEMUsVXuEkLhglKnM1Y2Y0XqASZHY2LBwDZ2f1S23RUPIUQTMkYpYTV3fDZY81cFM1ZIICSFkzUYcWUWkEcMYEYn4BZic1cVM1ZvjFR3QUZLY2LBwDZ2f1S23RUPIUQTMkYpYTV3fDZY81cFM1ZIICSLkULgQTUFIldmYTTqcmUXQSTUo0bUwFRlg0UXIWUWkENHIDSzY1TLQiZS4DMpMkS3Y1PMICTC0DdXkFR0MyPOAUQpQUPvPDRuEkUOgFVVokbQcUV30zPSwFNFE0ZAczXtkkZhsVQsgjYXcEVxU0UYgCRBwDcLMESzn1TNQiZS4DdlMTSx.0PMgGVogTcyLzSPUjZTEDLDgzaQY0SngkUZIWTWkEdMMzTrgSLTYWUVkkZIIDRwTjQgASUV8DZPk1Ry.0PLQiZS4TLtjGS3I1TLomYC0DZ2f1S23RUPIUQTMkYpYTV3fjPgsVVWkkbIIDRwTjQgASUV8DZtj1RwP0TNQiZS4DMXkVSwfzTLkmZC4DMHg2R4X2PTETRUAUSAIkVpASZHM2ZFQFZtf1XmcmUisFLogzcyHDSncCZOciKUAkTEQ0TlolQYgCR3EFLQcjXvD0URQWTVk0LIIDRwTjQgASUV8DZDk1R1gDdKkic4sjUEwlXuUDaXIWUVAkb2YjXm0jLhAUQrI1YvXUV5UEahkGMC4hKt3hKt3hKt3hKlIUUMQUTPkzUZESQFM1ZQQEV5UjQtDDQlAEMAcEV40zQtDDQ14hK5EjKt3hKt3hKt3hRUACTEEzZh8VVWgkdUYTTmE0UXwyKIMzasA2atUlaz4COuX0TTMCTrU2Yo41TzEFck4C."
						}
,
						"snapshotlist" : 						{
							"current_snapshot" : 0,
							"entries" : [ 								{
									"filetype" : "C74Snapshot",
									"version" : 2,
									"minorversion" : 0,
									"name" : "the weight of stars",
									"origin" : "stars.vst3",
									"type" : "VST3",
									"subtype" : "AudioEffect",
									"embed" : 0,
									"snapshot" : 									{
										"pluginname" : "stars.vst3",
										"plugindisplayname" : "the weight of stars",
										"pluginsavedname" : "",
										"pluginsaveduniqueid" : 0,
										"version" : 1,
										"isbank" : 0,
										"isbase64" : 1,
										"blob" : "2550.VMjLgzdB...OVMEUy.Ea0cVZtMEcgQWY9vSRC8Vav8lak4Fc9DCN0biKV0jZLclc0EjKt3xSqX1UgIWPnM1ZIIiXugCaggCRRwDctjFRlQEagkFNFk0azDSV3fjTUQUVTszLHg2S43hPOYUQrI1aEwFVxUkUPI2cFI1YMIiXPUDahcFLVkkdUwlX4QyPOAUQpQUPvPDRuEkUOgFSVoEdMYTXqkEUYsVTrg0YMEiVn4BZic1cVM1ZvjFR1MiTMMiZS4DMpMkSxvTdMICSS4DLXkGSncCZOciKUAkTEQ0TlolQYgCRnk0a2YzXqkzQLQTUFE1YqczTqQSLYo2YVIEcMUEVyEzQgsVSsgjYXcEVxU0UYgCRRwDctjFR0MyPOAUQpQUPvPDRuEkUOgFVVokbQcUV3EzPQs1cVgEM2QUVzMlQi41ZpE1TUECV0QiQYkWRBgTLEYTXvTkUOglKosjctLDS1QzTNQiZS4DMpMkS5o1PMICU40DLHg2R4X2PTETRUAUSAIkVpASZHw1ZFEldUwlX1AEUYIWQVQVUzXkV50TaHYFVWgkbUcUV3fjPLg1Mn8zMtTETRUDUSYlZFkENHgVVucmQisVRGwjQIcUV2U0UYQWSVQFZtf1XmcmUisFLogjLPMjS1MiPLg1Mn8zMtTETRUDUSYlZFkENHgVVucmQisVRGwDSYESXDUkQho2YFE0Z2YEVzDUUZMWUrgjYXcEVxU0UYgCRBwDctjFR0MyPOAUQpQUPvPDRuEkUOgFVVokbQcUV3EzPSwFNFE0ZAczXtkkZhsVQsgjYXcEVxU0UYgCRBwDctjFR0MyPOAUQpQUPvPDRuEkUOgFVVokbQcUV3EzPSwFNwPkcUYUVpkjPHESQFEFLUY0SnQTZKYmKSwjctLDS1AUZMICSCwjcPkFSncCZOciKUAkTEQ0TlolQYgCRnk0a2YzXqkzULQTUFE1YqczTqQSLYo2YVIEcMUEVyEzQgsVSsgjYXcEVxU0UYgCRRwjcXk1RxH1TNQiZC4jLhMkS3oVZMQCR3sTN1MDUAkTUP0TPRokZvjFRrslQgoWUrI1cPQUVxUjUjwTUrEVaQcjVIQSLTsVSwDFcQEiXn4BZic1cVM1ZvjFR1MiPLYmKCwzcpMkSzn1TNQiZC0DMPkWSvH1TMg1Mn8zMtTETRUDUSYlZFkENHgVVucmQisVRWwDQUYTXms1UUQ2ZFMVdIIDRwTjQgASUV8DZtj1R1gDdKkicCQUPIUETMEjTZoFLogDaqYTX5UEahcGVpI1ZEc0XqQSLXQSRBgTLEYTXvTkUOglYS4Ddtj1R1gDdKkicCQUPIUETMEjTZoFLogDaqYTX5UEahcmcpkUcQQUV1E0QZQTUFE1YqcTUuAiUYglKnM1Y2Y0XqASZHY2LBwDZ2f1S23RUPIUQTMkYpYTV3fDZY81cFM1ZIcESLkULgQTUFIldmwVT3UkUhglKnM1Y2Y0XqASZHY2LR0zcpMkSzn1TNMiKS4DdXMUS2wTdMg1Mn8zMtTETRUDUSYlZFkENHgVVucmQisVRWwDSYESXSEzUYsVTrgjYXcEVxU0UYgCRRwDclMDS1o1TNQiZS4DMtLTSwvTZLECR3sTN1MDUAkTUP0TPRokZvjFRrslQgoWUrIFdPQUVxUjUjwTUrEVaQcjVIQSLTcFLFIlbUEiXn4BZic1cVM1ZvjFR2Q0PMQGVS4jctLDS3A0PMcGTCwTLHkFR0MyPOAUQpQUPvPDRuEkUOgFVVokbQcUV3kzPQs1cVgEM2QUVzMlQi41ZpE1TUECV0QiQYkWRBgTLEYTXvTkUOgFQosTdtLDS1QzTNQiXS4jdhkVSzfzTNg1Mn8zMtTETRUDUSYlZFkENHgVVucmQisVRswDQUYTXms1UUQ2ZFMVdIIDRwTjQgASUV8DZDkFR0MyPOAUQpQUPvPDRuEkUOgFVVokbQcUV3kTZQgWUVIFLUwVXosVaHYFVWgkbUcUV3fDZLEiYCwDctjFR0MyPOAUQpQUPvPDRuEkUOgFVVokbQcUV3kzPSwFNFE0ZAczXtEEUYIWQVQFUqYUXqkjPHESQFEFLUY0Sn4RZKYGR3sTN1MDUAkTUP0TPRokZvjFRrslQgoWUrIFd1oVV0EEUYYWTGokQIcUV2kjPHESQFEFLUY0Sn4RZKYGR3sTN1MDUAkTUP0TPRokZvjFRrslQgoWUrIFd1oVV00TQhsVUFkEZtf1XmcmUisFLogzcyHDS1QzPLYmKCwjdXkWS44xPLoGRogTcyLzSPUjZTEDLDgzaQY0SngkUZIWTWkEdMMTTqcmUXQycTkEciYzXtslZgMUQVElc2YUV4kjPHESQFEFLUY0SnQzTMg2Ln0DMpMkSzf0TNomYowjdHkFSncCZOciKUAkTEQ0TlolQYgCRnk0a2YzXqkjLLQTUFE1YqczTqQSLYo2YVIEcMUUVogCagoVSsgjYXcEVxU0UYgCRBwDctLDS14xTLQiZS4DMpMkSz.0TNomXS0jLTkFR0MyPOAUQpQUPvPDRuEkUOgFVVokbQcUV30zPQs1cVgEMUsVXuEkLhglKnM1Y2Y0XqASZHY2LBwDZ2f1S23RUPIUQTMkYpYTV3fDZY81cFM1ZIICSFkzUYcWUWkEcMYEYn4BZic1cVM1ZvjFR3QUZLY2LBwDZ2f1S23RUPIUQTMkYpYTV3fDZY81cFM1ZIICSLkULgQTUFIldmYTTqcmUXQSTUo0bUwFRlg0UXIWUWkENHIDSzY1TLQiZS4DMpMkS3Y1PMICTC0DdXkFR0MyPOAUQpQUPvPDRuEkUOgFVVokbQcUV30zPSwFNFE0ZAczXtkkZhsVQsgjYXcEVxU0UYgCRBwDcLMESzn1TNQiZS4DdlMTSx.0PMgGVogTcyLzSPUjZTEDLDgzaQY0SngkUZIWTWkEdMMzTrgSLTYWUVkkZIIDRwTjQgASUV8DZPk1Ry.0PLQiZS4TLtjGS3I1TLomYC0DZ2f1S23RUPIUQTMkYpYTV3fjPgsVVWkkbIIDRwTjQgASUV8DZtj1RwP0TNQiZS4DMXkVSwfzTLkmZC4DMHg2R4X2PTETRUAUSAIkVpASZHM2ZFQFZtf1XmcmUisFLogzcyHDSncCZOciKUAkTEQ0TlolQYgCR3EFLQcjXvD0URQWTVk0LIIDRwTjQgASUV8DZDk1R1gDdKkic4sjUEwlXuUDaXIWUVAkb2YjXm0jLhAUQrI1YvXUV5UEahkGMC4hKt3hKt3hKt3hKlIUUMQUTPkzUZESQFM1ZQQEV5UjQtDDQlAEMAcEV40zQtDDQ14hK5EjKt3hKt3hKt3hRUACTEEzZh8VVWgkdUYTTmE0UXwyKIMzasA2atUlaz4COuX0TTMCTrU2Yo41TzEFck4C."
									}
,
									"fileref" : 									{
										"name" : "the weight of stars",
										"filename" : "the weight of stars.maxsnap",
										"filepath" : "~/Documents/Max 8/Snapshots",
										"filepos" : -1,
										"snapshotfileid" : "ac02c3a88fe3ccc97dcd71a79c20652d"
									}

								}
 ]
						}

					}
,
					"text" : "vst~ stars.vst3",
					"varname" : "vst~",
					"viewvisibility" : 0
				}

			}
, 			{
				"box" : 				{
					"id" : "obj-77",
					"maxclass" : "toggle",
					"numinlets" : 1,
					"numoutlets" : 1,
					"outlettype" : [ "int" ],
					"parameter_enable" : 0,
					"patching_rect" : [ 815.80002300000001, 86.199996897289282, 24.0, 24.0 ]
				}

			}
, 			{
				"box" : 				{
					"id" : "obj-71",
					"maxclass" : "newobj",
					"numinlets" : 1,
					"numoutlets" : 3,
					"outlettype" : [ "float", "float", "" ],
					"patching_rect" : [ 815.800022798978716, 25.0, 42.0, 22.0 ],
					"text" : "fzero~"
				}

			}
, 			{
				"box" : 				{
					"id" : "obj-69",
					"maxclass" : "newobj",
					"numinlets" : 2,
					"numoutlets" : 1,
					"outlettype" : [ "float" ],
					"patching_rect" : [ 1371.849992609023957, 468.600005269050598, 29.5, 22.0 ],
					"text" : "!- 1."
				}

			}
, 			{
				"box" : 				{
					"id" : "obj-70",
					"maxclass" : "newobj",
					"numinlets" : 2,
					"numoutlets" : 1,
					"outlettype" : [ "float" ],
					"patching_rect" : [ 1266.0, 478.600005269050598, 29.5, 22.0 ],
					"text" : "!- 1."
				}

			}
, 			{
				"box" : 				{
					"id" : "obj-64",
					"maxclass" : "newobj",
					"numinlets" : 2,
					"numoutlets" : 1,
					"outlettype" : [ "signal" ],
					"patching_rect" : [ 1027.650007390976043, 579.600005745887756, 29.5, 22.0 ],
					"text" : "*~"
				}

			}
, 			{
				"box" : 				{
					"id" : "obj-66",
					"maxclass" : "newobj",
					"numinlets" : 2,
					"numoutlets" : 1,
					"outlettype" : [ "signal" ],
					"patching_rect" : [ 972.316633390975881, 579.600005745887756, 29.5, 22.0 ],
					"text" : "*~"
				}

			}
, 			{
				"box" : 				{
					"id" : "obj-67",
					"maxclass" : "newobj",
					"numinlets" : 2,
					"numoutlets" : 1,
					"outlettype" : [ "signal" ],
					"patching_rect" : [ 916.983320390975905, 579.600005745887756, 29.5, 22.0 ],
					"text" : "*~"
				}

			}
, 			{
				"box" : 				{
					"id" : "obj-68",
					"maxclass" : "newobj",
					"numinlets" : 2,
					"numoutlets" : 1,
					"outlettype" : [ "signal" ],
					"patching_rect" : [ 861.650007390975929, 579.600005745887756, 29.5, 22.0 ],
					"text" : "*~"
				}

			}
, 			{
				"box" : 				{
					"id" : "obj-63",
					"maxclass" : "newobj",
					"numinlets" : 2,
					"numoutlets" : 1,
					"outlettype" : [ "" ],
					"patching_rect" : [ 1371.849992609023957, 388.0, 65.0, 22.0 ],
					"text" : "pipe 1000."
				}

			}
, 			{
				"box" : 				{
					"id" : "obj-62",
					"maxclass" : "newobj",
					"numinlets" : 2,
					"numoutlets" : 1,
					"outlettype" : [ "" ],
					"patching_rect" : [ 1266.0, 388.0, 65.0, 22.0 ],
					"text" : "pipe 1000."
				}

			}
, 			{
				"box" : 				{
					"id" : "obj-61",
					"maxclass" : "newobj",
					"numinlets" : 2,
					"numoutlets" : 1,
					"outlettype" : [ "float" ],
					"patching_rect" : [ 1042.0, 210.0, 31.0, 22.0 ],
					"text" : "* -1."
				}

			}
, 			{
				"box" : 				{
					"id" : "obj-60",
					"maxclass" : "newobj",
					"numinlets" : 2,
					"numoutlets" : 1,
					"outlettype" : [ "float" ],
					"patching_rect" : [ 1003.0, 210.0, 31.0, 22.0 ],
					"text" : "* -1."
				}

			}
, 			{
				"box" : 				{
					"id" : "obj-59",
					"maxclass" : "newobj",
					"numinlets" : 4,
					"numoutlets" : 2,
					"outlettype" : [ "signal", "signal" ],
					"patching_rect" : [ 1121.0, 291.20000433921814, 69.0, 22.0 ],
					"text" : "M4L.pan2~"
				}

			}
, 			{
				"box" : 				{
					"id" : "obj-191",
					"maxclass" : "newobj",
					"numinlets" : 1,
					"numoutlets" : 1,
					"outlettype" : [ "bang" ],
					"patching_rect" : [ 1181.5, 98.0, 58.0, 22.0 ],
					"text" : "loadbang"
				}

			}
, 			{
				"box" : 				{
					"id" : "obj-192",
					"maxclass" : "newobj",
					"numinlets" : 1,
					"numoutlets" : 1,
					"outlettype" : [ "clear" ],
					"patcher" : 					{
						"fileversion" : 1,
						"appversion" : 						{
							"major" : 8,
							"minor" : 3,
							"revision" : 1,
							"architecture" : "x64",
							"modernui" : 1
						}
,
						"classnamespace" : "box",
						"rect" : [ 1197.0, 152.0, 681.0, 913.0 ],
						"bglocked" : 0,
						"openinpresentation" : 0,
						"default_fontsize" : 12.0,
						"default_fontface" : 0,
						"default_fontname" : "Arial",
						"gridonopen" : 1,
						"gridsize" : [ 15.0, 15.0 ],
						"gridsnaponopen" : 1,
						"objectsnaponopen" : 1,
						"statusbarvisible" : 2,
						"toolbarvisible" : 1,
						"lefttoolbarpinned" : 0,
						"toptoolbarpinned" : 0,
						"righttoolbarpinned" : 0,
						"bottomtoolbarpinned" : 0,
						"toolbars_unpinned_last_save" : 0,
						"tallnewobj" : 0,
						"boxanimatetime" : 200,
						"enablehscroll" : 1,
						"enablevscroll" : 1,
						"devicewidth" : 0.0,
						"description" : "",
						"digest" : "",
						"tags" : "",
						"style" : "",
						"subpatcher_template" : "",
						"assistshowspatchername" : 0,
						"boxes" : [ 							{
								"box" : 								{
									"id" : "obj-4",
									"maxclass" : "newobj",
									"numinlets" : 1,
									"numoutlets" : 2,
									"outlettype" : [ "bang", "clear" ],
									"patching_rect" : [ 44.999998969417575, 68.0, 51.0, 22.0 ],
									"text" : "t b clear"
								}

							}
, 							{
								"box" : 								{
									"id" : "obj-6",
									"maxclass" : "newobj",
									"numinlets" : 2,
									"numoutlets" : 2,
									"outlettype" : [ "", "" ],
									"patching_rect" : [ 44.999998969417575, 190.0, 205.0, 22.0 ],
									"text" : "combine path /sfx_synth/vn_end.wav"
								}

							}
, 							{
								"box" : 								{
									"id" : "obj-8",
									"maxclass" : "newobj",
									"numinlets" : 1,
									"numoutlets" : 1,
									"outlettype" : [ "" ],
									"patching_rect" : [ 44.999998969417575, 252.0, 96.0, 22.0 ],
									"text" : "prepend append"
								}

							}
, 							{
								"box" : 								{
									"id" : "obj-1",
									"maxclass" : "newobj",
									"numinlets" : 1,
									"numoutlets" : 1,
									"outlettype" : [ "" ],
									"patching_rect" : [ 44.999998969417575, 156.0, 77.0, 22.0 ],
									"text" : "absolutepath"
								}

							}
, 							{
								"box" : 								{
									"id" : "obj-55",
									"maxclass" : "message",
									"numinlets" : 2,
									"numoutlets" : 1,
									"outlettype" : [ "" ],
									"patching_rect" : [ 44.999998969417575, 127.0, 38.0, 22.0 ],
									"text" : "audio"
								}

							}
, 							{
								"box" : 								{
									"comment" : "",
									"id" : "obj-57",
									"index" : 1,
									"maxclass" : "inlet",
									"numinlets" : 0,
									"numoutlets" : 1,
									"outlettype" : [ "bang" ],
									"patching_rect" : [ 44.999998969417575, 17.000001132488251, 30.0, 30.0 ]
								}

							}
, 							{
								"box" : 								{
									"comment" : "",
									"id" : "obj-62",
									"index" : 1,
									"maxclass" : "outlet",
									"numinlets" : 1,
									"numoutlets" : 0,
									"patching_rect" : [ 222.0, 327.0, 30.0, 30.0 ]
								}

							}
 ],
						"lines" : [ 							{
								"patchline" : 								{
									"destination" : [ "obj-6", 0 ],
									"source" : [ "obj-1", 0 ]
								}

							}
, 							{
								"patchline" : 								{
									"destination" : [ "obj-55", 0 ],
									"source" : [ "obj-4", 0 ]
								}

							}
, 							{
								"patchline" : 								{
									"destination" : [ "obj-62", 0 ],
									"midpoints" : [ 86.499998969417575, 114.0, 231.5, 114.0 ],
									"source" : [ "obj-4", 1 ]
								}

							}
, 							{
								"patchline" : 								{
									"destination" : [ "obj-1", 0 ],
									"source" : [ "obj-55", 0 ]
								}

							}
, 							{
								"patchline" : 								{
									"destination" : [ "obj-4", 0 ],
									"source" : [ "obj-57", 0 ]
								}

							}
, 							{
								"patchline" : 								{
									"destination" : [ "obj-8", 0 ],
									"source" : [ "obj-6", 0 ]
								}

							}
, 							{
								"patchline" : 								{
									"destination" : [ "obj-62", 0 ],
									"source" : [ "obj-8", 0 ]
								}

							}
 ]
					}
,
					"patching_rect" : [ 1181.5, 125.833337783813477, 34.0, 22.0 ],
					"saved_object_attributes" : 					{
						"description" : "",
						"digest" : "",
						"globalpatchername" : "",
						"tags" : ""
					}
,
					"text" : "p file"
				}

			}
, 			{
				"box" : 				{
					"basictuning" : 440,
					"clipheight" : 29.0,
					"data" : 					{
						"clips" : [ 							{
								"absolutepath" : "C:/Users/rv/Documents/the_bridge/audio/sfx_synth/vn_end.wav",
								"filename" : "vn_end.wav",
								"filekind" : "audiofile",
								"id" : "u341003695",
								"selection" : [ 0.0, 1.0 ],
								"loop" : 0,
								"content_state" : 								{
									"loop" : 0
								}

							}
 ]
					}
,
					"followglobaltempo" : 0,
					"formantcorrection" : 0,
					"id" : "obj-193",
					"maxclass" : "playlist~",
					"mode" : "basic",
					"numinlets" : 1,
					"numoutlets" : 5,
					"originallength" : [ 0.0, "ticks" ],
					"originaltempo" : 120.0,
					"outlettype" : [ "signal", "signal", "signal", "", "dictionary" ],
					"parameter_enable" : 0,
					"patching_rect" : [ 1121.0, 172.166674062370305, 150.0, 30.0 ],
					"pitchcorrection" : 0,
					"quality" : "basic",
					"timestretch" : [ 0 ]
				}

			}
, 			{
				"box" : 				{
					"id" : "obj-55",
					"maxclass" : "newobj",
					"numinlets" : 1,
					"numoutlets" : 1,
					"outlettype" : [ "" ],
					"patcher" : 					{
						"fileversion" : 1,
						"appversion" : 						{
							"major" : 8,
							"minor" : 3,
							"revision" : 1,
							"architecture" : "x64",
							"modernui" : 1
						}
,
						"classnamespace" : "box",
						"rect" : [ 0.0, 0.0, 640.0, 480.0 ],
						"bglocked" : 0,
						"openinpresentation" : 0,
						"default_fontsize" : 12.0,
						"default_fontface" : 0,
						"default_fontname" : "Arial",
						"gridonopen" : 1,
						"gridsize" : [ 15.0, 15.0 ],
						"gridsnaponopen" : 1,
						"objectsnaponopen" : 1,
						"statusbarvisible" : 2,
						"toolbarvisible" : 1,
						"lefttoolbarpinned" : 0,
						"toptoolbarpinned" : 0,
						"righttoolbarpinned" : 0,
						"bottomtoolbarpinned" : 0,
						"toolbars_unpinned_last_save" : 0,
						"tallnewobj" : 0,
						"boxanimatetime" : 200,
						"enablehscroll" : 1,
						"enablevscroll" : 1,
						"devicewidth" : 0.0,
						"description" : "",
						"digest" : "",
						"tags" : "",
						"style" : "",
						"subpatcher_template" : "",
						"assistshowspatchername" : 0,
						"boxes" : [ 							{
								"box" : 								{
									"id" : "obj-51",
									"maxclass" : "newobj",
									"numinlets" : 3,
									"numoutlets" : 1,
									"outlettype" : [ "float" ],
									"patching_rect" : [ 50.0, 229.0, 60.0, 22.0 ],
									"text" : "slide 5. 5."
								}

							}
, 							{
								"box" : 								{
									"id" : "obj-48",
									"maxclass" : "newobj",
									"numinlets" : 1,
									"numoutlets" : 1,
									"outlettype" : [ "" ],
									"patching_rect" : [ 50.0, 263.200003087520599, 97.0, 22.0 ],
									"text" : "expr ($f1 + 1) / 2"
								}

							}
, 							{
								"box" : 								{
									"id" : "obj-47",
									"maxclass" : "newobj",
									"numinlets" : 2,
									"numoutlets" : 1,
									"outlettype" : [ "float" ],
									"patching_rect" : [ 50.0, 166.0, 29.5, 22.0 ],
									"text" : "/ 4."
								}

							}
, 							{
								"box" : 								{
									"format" : 6,
									"id" : "obj-46",
									"maxclass" : "flonum",
									"maximum" : 1.0,
									"minimum" : -1.0,
									"numinlets" : 1,
									"numoutlets" : 2,
									"outlettype" : [ "", "bang" ],
									"parameter_enable" : 0,
									"patching_rect" : [ 50.0, 197.0, 50.0, 22.0 ]
								}

							}
, 							{
								"box" : 								{
									"id" : "obj-44",
									"maxclass" : "newobj",
									"numinlets" : 2,
									"numoutlets" : 1,
									"outlettype" : [ "float" ],
									"patching_rect" : [ 50.0, 133.0, 29.5, 22.0 ],
									"text" : "- 0."
								}

							}
, 							{
								"box" : 								{
									"id" : "obj-43",
									"maxclass" : "newobj",
									"numinlets" : 2,
									"numoutlets" : 1,
									"outlettype" : [ "" ],
									"patching_rect" : [ 76.0, 100.0, 48.0, 22.0 ],
									"text" : "pipe 20"
								}

							}
, 							{
								"box" : 								{
									"comment" : "",
									"id" : "obj-52",
									"index" : 1,
									"maxclass" : "inlet",
									"numinlets" : 0,
									"numoutlets" : 1,
									"outlettype" : [ "" ],
									"patching_rect" : [ 56.999992609024048, 40.0, 30.0, 30.0 ]
								}

							}
, 							{
								"box" : 								{
									"comment" : "",
									"id" : "obj-53",
									"index" : 1,
									"maxclass" : "outlet",
									"numinlets" : 1,
									"numoutlets" : 0,
									"patching_rect" : [ 49.999992609024048, 345.200012000000015, 30.0, 30.0 ]
								}

							}
 ],
						"lines" : [ 							{
								"patchline" : 								{
									"destination" : [ "obj-44", 1 ],
									"source" : [ "obj-43", 0 ]
								}

							}
, 							{
								"patchline" : 								{
									"destination" : [ "obj-47", 0 ],
									"source" : [ "obj-44", 0 ]
								}

							}
, 							{
								"patchline" : 								{
									"destination" : [ "obj-51", 0 ],
									"source" : [ "obj-46", 0 ]
								}

							}
, 							{
								"patchline" : 								{
									"destination" : [ "obj-46", 0 ],
									"source" : [ "obj-47", 0 ]
								}

							}
, 							{
								"patchline" : 								{
									"destination" : [ "obj-53", 0 ],
									"source" : [ "obj-48", 0 ]
								}

							}
, 							{
								"patchline" : 								{
									"destination" : [ "obj-48", 0 ],
									"source" : [ "obj-51", 0 ]
								}

							}
, 							{
								"patchline" : 								{
									"destination" : [ "obj-43", 0 ],
									"order" : 0,
									"source" : [ "obj-52", 0 ]
								}

							}
, 							{
								"patchline" : 								{
									"destination" : [ "obj-44", 0 ],
									"order" : 1,
									"source" : [ "obj-52", 0 ]
								}

							}
 ]
					}
,
					"patching_rect" : [ 753.400021982395174, 212.20000433921814, 61.0, 22.0 ],
					"saved_object_attributes" : 					{
						"description" : "",
						"digest" : "",
						"globalpatchername" : "",
						"tags" : ""
					}
,
					"text" : "p process"
				}

			}
, 			{
				"box" : 				{
					"format" : 6,
					"id" : "obj-56",
					"maxclass" : "flonum",
					"numinlets" : 1,
					"numoutlets" : 2,
					"outlettype" : [ "", "bang" ],
					"parameter_enable" : 0,
					"patching_rect" : [ 753.400021982395174, 246.20000433921814, 50.0, 22.0 ]
				}

			}
, 			{
				"box" : 				{
					"id" : "obj-57",
					"maxclass" : "newobj",
					"numinlets" : 6,
					"numoutlets" : 1,
					"outlettype" : [ "" ],
					"patching_rect" : [ 709.000021982395197, 291.20000433921814, 93.0, 22.0 ],
					"text" : "scale 1. 2. 1 0.5"
				}

			}
, 			{
				"box" : 				{
					"id" : "obj-54",
					"maxclass" : "newobj",
					"numinlets" : 1,
					"numoutlets" : 1,
					"outlettype" : [ "" ],
					"patcher" : 					{
						"fileversion" : 1,
						"appversion" : 						{
							"major" : 8,
							"minor" : 3,
							"revision" : 1,
							"architecture" : "x64",
							"modernui" : 1
						}
,
						"classnamespace" : "box",
						"rect" : [ 0.0, 0.0, 640.0, 480.0 ],
						"bglocked" : 0,
						"openinpresentation" : 0,
						"default_fontsize" : 12.0,
						"default_fontface" : 0,
						"default_fontname" : "Arial",
						"gridonopen" : 1,
						"gridsize" : [ 15.0, 15.0 ],
						"gridsnaponopen" : 1,
						"objectsnaponopen" : 1,
						"statusbarvisible" : 2,
						"toolbarvisible" : 1,
						"lefttoolbarpinned" : 0,
						"toptoolbarpinned" : 0,
						"righttoolbarpinned" : 0,
						"bottomtoolbarpinned" : 0,
						"toolbars_unpinned_last_save" : 0,
						"tallnewobj" : 0,
						"boxanimatetime" : 200,
						"enablehscroll" : 1,
						"enablevscroll" : 1,
						"devicewidth" : 0.0,
						"description" : "",
						"digest" : "",
						"tags" : "",
						"style" : "",
						"subpatcher_template" : "",
						"assistshowspatchername" : 0,
						"boxes" : [ 							{
								"box" : 								{
									"id" : "obj-51",
									"maxclass" : "newobj",
									"numinlets" : 3,
									"numoutlets" : 1,
									"outlettype" : [ "float" ],
									"patching_rect" : [ 50.0, 229.0, 60.0, 22.0 ],
									"text" : "slide 5. 5."
								}

							}
, 							{
								"box" : 								{
									"id" : "obj-48",
									"maxclass" : "newobj",
									"numinlets" : 1,
									"numoutlets" : 1,
									"outlettype" : [ "" ],
									"patching_rect" : [ 50.0, 263.200003087520599, 97.0, 22.0 ],
									"text" : "expr ($f1 + 1) / 2"
								}

							}
, 							{
								"box" : 								{
									"id" : "obj-47",
									"maxclass" : "newobj",
									"numinlets" : 2,
									"numoutlets" : 1,
									"outlettype" : [ "float" ],
									"patching_rect" : [ 50.0, 166.0, 29.5, 22.0 ],
									"text" : "/ 4."
								}

							}
, 							{
								"box" : 								{
									"format" : 6,
									"id" : "obj-46",
									"maxclass" : "flonum",
									"maximum" : 1.0,
									"minimum" : -1.0,
									"numinlets" : 1,
									"numoutlets" : 2,
									"outlettype" : [ "", "bang" ],
									"parameter_enable" : 0,
									"patching_rect" : [ 50.0, 197.0, 50.0, 22.0 ]
								}

							}
, 							{
								"box" : 								{
									"id" : "obj-44",
									"maxclass" : "newobj",
									"numinlets" : 2,
									"numoutlets" : 1,
									"outlettype" : [ "float" ],
									"patching_rect" : [ 50.0, 133.0, 29.5, 22.0 ],
									"text" : "- 0."
								}

							}
, 							{
								"box" : 								{
									"id" : "obj-43",
									"maxclass" : "newobj",
									"numinlets" : 2,
									"numoutlets" : 1,
									"outlettype" : [ "" ],
									"patching_rect" : [ 76.0, 100.0, 48.0, 22.0 ],
									"text" : "pipe 20"
								}

							}
, 							{
								"box" : 								{
									"comment" : "",
									"id" : "obj-52",
									"index" : 1,
									"maxclass" : "inlet",
									"numinlets" : 0,
									"numoutlets" : 1,
									"outlettype" : [ "" ],
									"patching_rect" : [ 56.999992609024048, 40.0, 30.0, 30.0 ]
								}

							}
, 							{
								"box" : 								{
									"comment" : "",
									"id" : "obj-53",
									"index" : 1,
									"maxclass" : "outlet",
									"numinlets" : 1,
									"numoutlets" : 0,
									"patching_rect" : [ 49.999992609024048, 345.200012000000015, 30.0, 30.0 ]
								}

							}
 ],
						"lines" : [ 							{
								"patchline" : 								{
									"destination" : [ "obj-44", 1 ],
									"source" : [ "obj-43", 0 ]
								}

							}
, 							{
								"patchline" : 								{
									"destination" : [ "obj-47", 0 ],
									"source" : [ "obj-44", 0 ]
								}

							}
, 							{
								"patchline" : 								{
									"destination" : [ "obj-51", 0 ],
									"source" : [ "obj-46", 0 ]
								}

							}
, 							{
								"patchline" : 								{
									"destination" : [ "obj-46", 0 ],
									"source" : [ "obj-47", 0 ]
								}

							}
, 							{
								"patchline" : 								{
									"destination" : [ "obj-53", 0 ],
									"source" : [ "obj-48", 0 ]
								}

							}
, 							{
								"patchline" : 								{
									"destination" : [ "obj-48", 0 ],
									"source" : [ "obj-51", 0 ]
								}

							}
, 							{
								"patchline" : 								{
									"destination" : [ "obj-43", 0 ],
									"order" : 0,
									"source" : [ "obj-52", 0 ]
								}

							}
, 							{
								"patchline" : 								{
									"destination" : [ "obj-44", 0 ],
									"order" : 1,
									"source" : [ "obj-52", 0 ]
								}

							}
 ]
					}
,
					"patching_rect" : [ 620.400021982395174, 212.20000433921814, 61.0, 22.0 ],
					"saved_object_attributes" : 					{
						"description" : "",
						"digest" : "",
						"globalpatchername" : "",
						"tags" : ""
					}
,
					"text" : "p process"
				}

			}
, 			{
				"box" : 				{
					"format" : 6,
					"id" : "obj-50",
					"maxclass" : "flonum",
					"numinlets" : 1,
					"numoutlets" : 2,
					"outlettype" : [ "", "bang" ],
					"parameter_enable" : 0,
					"patching_rect" : [ 620.400021982395174, 246.20000433921814, 50.0, 22.0 ]
				}

			}
, 			{
				"box" : 				{
					"id" : "obj-42",
					"maxclass" : "newobj",
					"numinlets" : 6,
					"numoutlets" : 1,
					"outlettype" : [ "" ],
					"patching_rect" : [ 576.000021982395197, 291.20000433921814, 93.0, 22.0 ],
					"text" : "scale 1. 2. 1 0.5"
				}

			}
, 			{
				"box" : 				{
					"id" : "obj-41",
					"maxclass" : "newobj",
					"numinlets" : 6,
					"numoutlets" : 1,
					"outlettype" : [ "" ],
					"patching_rect" : [ 385.900002539157867, 176.0, 97.0, 22.0 ],
					"text" : "scale 1. 2. 30 50"
				}

			}
, 			{
				"box" : 				{
					"format" : 6,
					"id" : "obj-29",
					"maxclass" : "flonum",
					"numinlets" : 1,
					"numoutlets" : 2,
					"outlettype" : [ "", "bang" ],
					"parameter_enable" : 0,
					"patching_rect" : [ 17.000021982395197, 180.0, 50.0, 22.0 ]
				}

			}
, 			{
				"box" : 				{
					"id" : "obj-25",
					"maxclass" : "newobj",
					"numinlets" : 6,
					"numoutlets" : 1,
					"outlettype" : [ "" ],
					"patching_rect" : [ 17.000021982395197, 153.0, 105.0, 22.0 ],
					"text" : "scale 1. 2. -30 -50"
				}

			}
, 			{
				"box" : 				{
					"id" : "obj-24",
					"maxclass" : "comment",
					"numinlets" : 1,
					"numoutlets" : 0,
					"patching_rect" : [ 8.0, 33.0, 65.0, 20.0 ],
					"text" : "time: 1...2"
				}

			}
, 			{
				"box" : 				{
					"comment" : "",
					"id" : "obj-22",
					"index" : 1,
					"maxclass" : "inlet",
					"numinlets" : 0,
					"numoutlets" : 1,
					"outlettype" : [ "float" ],
					"patching_rect" : [ 17.000021982395197, 67.199996897289282, 30.0, 30.0 ]
				}

			}
, 			{
				"box" : 				{
					"id" : "obj-20",
					"maxclass" : "newobj",
					"numinlets" : 2,
					"numoutlets" : 1,
					"outlettype" : [ "float" ],
					"patching_rect" : [ 449.5, 125.199996897289282, 40.0, 22.0 ],
					"text" : "* 100."
				}

			}
, 			{
				"box" : 				{
					"format" : 6,
					"id" : "obj-18",
					"maxclass" : "flonum",
					"numinlets" : 1,
					"numoutlets" : 2,
					"outlettype" : [ "", "bang" ],
					"parameter_enable" : 0,
					"patching_rect" : [ 139.5, 111.0, 50.0, 22.0 ]
				}

			}
, 			{
				"box" : 				{
					"id" : "obj-16",
					"maxclass" : "newobj",
					"numinlets" : 2,
					"numoutlets" : 1,
					"outlettype" : [ "float" ],
					"patching_rect" : [ 139.5, 77.0, 40.0, 22.0 ],
					"text" : "* 100."
				}

			}
, 			{
				"box" : 				{
					"id" : "obj-58",
					"maxclass" : "newobj",
					"numinlets" : 0,
					"numoutlets" : 1,
					"outlettype" : [ "" ],
					"patching_rect" : [ 449.5, 86.199996897289282, 29.0, 22.0 ],
					"text" : "r 2x"
				}

			}
, 			{
				"box" : 				{
					"id" : "obj-65",
					"maxclass" : "newobj",
					"numinlets" : 0,
					"numoutlets" : 1,
					"outlettype" : [ "" ],
					"patching_rect" : [ 139.5, 38.0, 29.0, 22.0 ],
					"text" : "r 1x"
				}

			}
, 			{
				"box" : 				{
					"id" : "obj-15",
					"maxclass" : "newobj",
					"numinlets" : 0,
					"numoutlets" : 1,
					"outlettype" : [ "" ],
					"patching_rect" : [ 753.400021982395174, 178.400001236507421, 33.0, 22.0 ],
					"text" : "r hr2"
				}

			}
, 			{
				"box" : 				{
					"id" : "obj-14",
					"maxclass" : "newobj",
					"numinlets" : 0,
					"numoutlets" : 1,
					"outlettype" : [ "" ],
					"patching_rect" : [ 620.400022373371144, 178.400001236507421, 33.0, 22.0 ],
					"text" : "r hr1"
				}

			}
, 			{
				"box" : 				{
					"id" : "obj-2",
					"maxclass" : "newobj",
					"numinlets" : 2,
					"numoutlets" : 1,
					"outlettype" : [ "float" ],
					"patching_rect" : [ 709.000021982395197, 433.800009608268738, 29.5, 22.0 ],
					"text" : "!- 1."
				}

			}
, 			{
				"box" : 				{
					"id" : "obj-10",
					"maxclass" : "comment",
					"numinlets" : 1,
					"numoutlets" : 0,
					"patching_rect" : [ 809.000022697650934, 293.20000433921814, 63.600000202655792, 20.0 ],
					"text" : "A / B bal"
				}

			}
, 			{
				"box" : 				{
					"id" : "obj-32",
					"maxclass" : "meter~",
					"numinlets" : 1,
					"numoutlets" : 1,
					"outlettype" : [ "float" ],
					"patching_rect" : [ 178.800003468990326, 345.200004637241364, 80.0, 13.0 ]
				}

			}
, 			{
				"box" : 				{
					"id" : "obj-31",
					"maxclass" : "meter~",
					"numinlets" : 1,
					"numoutlets" : 1,
					"outlettype" : [ "float" ],
					"patching_rect" : [ 178.800003468990326, 325.20000433921814, 80.0, 13.0 ]
				}

			}
, 			{
				"box" : 				{
					"id" : "obj-27",
					"linecount" : 2,
					"maxclass" : "comment",
					"numinlets" : 1,
					"numoutlets" : 0,
					"patching_rect" : [ 636.400001645088196, 765.000007629394531, 83.333331346511841, 34.0 ],
					"text" : "   A          B\nL    R    L    R"
				}

			}
, 			{
				"box" : 				{
					"id" : "obj-21",
					"maxclass" : "newobj",
					"numinlets" : 2,
					"numoutlets" : 1,
					"outlettype" : [ "float" ],
					"patching_rect" : [ 576.000021982395197, 438.800009608268738, 29.5, 22.0 ],
					"text" : "!- 1."
				}

			}
, 			{
				"box" : 				{
					"id" : "obj-11",
					"maxclass" : "comment",
					"numinlets" : 1,
					"numoutlets" : 0,
					"patching_rect" : [ 576.000021982395197, 149.400008976459503, 63.600000202655792, 20.0 ],
					"text" : "A / B bal"
				}

			}
, 			{
				"box" : 				{
					"id" : "obj-7",
					"maxclass" : "newobj",
					"numinlets" : 2,
					"numoutlets" : 1,
					"outlettype" : [ "signal" ],
					"patching_rect" : [ 587.000021982395197, 594.600005745887756, 29.5, 22.0 ],
					"text" : "*~"
				}

			}
, 			{
				"box" : 				{
					"id" : "obj-6",
					"maxclass" : "newobj",
					"numinlets" : 2,
					"numoutlets" : 1,
					"outlettype" : [ "signal" ],
					"patching_rect" : [ 531.666647982395148, 594.600005745887756, 29.5, 22.0 ],
					"text" : "*~"
				}

			}
, 			{
				"box" : 				{
					"id" : "obj-5",
					"maxclass" : "newobj",
					"numinlets" : 2,
					"numoutlets" : 1,
					"outlettype" : [ "signal" ],
					"patching_rect" : [ 476.333334982395172, 594.600005745887756, 29.5, 22.0 ],
					"text" : "*~"
				}

			}
, 			{
				"box" : 				{
					"id" : "obj-4",
					"maxclass" : "newobj",
					"numinlets" : 2,
					"numoutlets" : 1,
					"outlettype" : [ "signal" ],
					"patching_rect" : [ 421.000021982395197, 594.600005745887756, 29.5, 22.0 ],
					"text" : "*~"
				}

			}
, 			{
				"box" : 				{
					"id" : "obj-3",
					"maxclass" : "comment",
					"numinlets" : 1,
					"numoutlets" : 0,
					"patching_rect" : [ 399.40000307559967, 231.200003087520599, 77.999998927116394, 20.0 ],
					"text" : "L / R pan"
				}

			}
, 			{
				"box" : 				{
					"id" : "obj-1",
					"maxclass" : "newobj",
					"numinlets" : 4,
					"numoutlets" : 2,
					"outlettype" : [ "signal", "signal" ],
					"patching_rect" : [ 307.466647875106787, 231.200003087520599, 69.0, 22.0 ],
					"text" : "M4L.pan2~"
				}

			}
, 			{
				"box" : 				{
					"comment" : "",
					"id" : "obj-33",
					"index" : 2,
					"maxclass" : "inlet",
					"numinlets" : 0,
					"numoutlets" : 1,
					"outlettype" : [ "signal" ],
					"patching_rect" : [ 271.000021982395197, 125.199996897289282, 30.0, 30.0 ]
				}

			}
, 			{
				"box" : 				{
					"comment" : "",
					"id" : "obj-34",
					"index" : 3,
					"maxclass" : "inlet",
					"numinlets" : 0,
					"numoutlets" : 1,
					"outlettype" : [ "signal" ],
					"patching_rect" : [ 336.466647875106787, 125.199996897289282, 30.0, 30.0 ]
				}

			}
, 			{
				"box" : 				{
					"comment" : "",
					"id" : "obj-35",
					"index" : 1,
					"maxclass" : "outlet",
					"numinlets" : 1,
					"numoutlets" : 0,
					"patching_rect" : [ 576.000021982395197, 697.400015402042413, 30.0, 30.0 ]
				}

			}
, 			{
				"box" : 				{
					"comment" : "",
					"id" : "obj-36",
					"index" : 2,
					"maxclass" : "outlet",
					"numinlets" : 1,
					"numoutlets" : 0,
					"patching_rect" : [ 631.333334982395172, 697.400015402042413, 30.0, 30.0 ]
				}

			}
, 			{
				"box" : 				{
					"comment" : "",
					"id" : "obj-37",
					"index" : 3,
					"maxclass" : "outlet",
					"numinlets" : 1,
					"numoutlets" : 0,
					"patching_rect" : [ 686.666647982395148, 697.400015402042413, 30.0, 30.0 ]
				}

			}
, 			{
				"box" : 				{
					"comment" : "",
					"id" : "obj-38",
					"index" : 4,
					"maxclass" : "outlet",
					"numinlets" : 1,
					"numoutlets" : 0,
					"patching_rect" : [ 742.000021982395197, 697.400015402042413, 30.0, 30.0 ]
				}

			}
, 			{
				"box" : 				{
					"id" : "obj-23",
					"maxclass" : "message",
					"numinlets" : 2,
					"numoutlets" : 1,
					"outlettype" : [ "" ],
					"patching_rect" : [ 1070.5, 71.199996897289282, 41.0, 22.0 ],
					"text" : "pause"
				}

			}
 ],
		"lines" : [ 			{
				"patchline" : 				{
					"destination" : [ "obj-31", 0 ],
					"order" : 2,
					"source" : [ "obj-1", 0 ]
				}

			}
, 			{
				"patchline" : 				{
					"destination" : [ "obj-32", 0 ],
					"order" : 2,
					"source" : [ "obj-1", 1 ]
				}

			}
, 			{
				"patchline" : 				{
					"destination" : [ "obj-4", 0 ],
					"order" : 1,
					"source" : [ "obj-1", 0 ]
				}

			}
, 			{
				"patchline" : 				{
					"destination" : [ "obj-5", 0 ],
					"order" : 1,
					"source" : [ "obj-1", 1 ]
				}

			}
, 			{
				"patchline" : 				{
					"destination" : [ "obj-6", 0 ],
					"order" : 0,
					"source" : [ "obj-1", 0 ]
				}

			}
, 			{
				"patchline" : 				{
					"destination" : [ "obj-7", 0 ],
					"order" : 0,
					"source" : [ "obj-1", 1 ]
				}

			}
, 			{
				"patchline" : 				{
					"destination" : [ "obj-54", 0 ],
					"source" : [ "obj-14", 0 ]
				}

			}
, 			{
				"patchline" : 				{
					"destination" : [ "obj-55", 0 ],
					"source" : [ "obj-15", 0 ]
				}

			}
, 			{
				"patchline" : 				{
					"destination" : [ "obj-18", 0 ],
					"source" : [ "obj-16", 0 ]
				}

			}
, 			{
				"patchline" : 				{
					"destination" : [ "obj-25", 3 ],
					"source" : [ "obj-18", 0 ]
				}

			}
, 			{
				"patchline" : 				{
					"destination" : [ "obj-192", 0 ],
					"source" : [ "obj-191", 0 ]
				}

			}
, 			{
				"patchline" : 				{
					"destination" : [ "obj-193", 0 ],
					"source" : [ "obj-192", 0 ]
				}

			}
, 			{
				"patchline" : 				{
					"destination" : [ "obj-73", 0 ],
					"source" : [ "obj-193", 0 ]
				}

			}
, 			{
				"patchline" : 				{
					"destination" : [ "obj-86", 1 ],
					"source" : [ "obj-193", 1 ]
				}

			}
, 			{
				"patchline" : 				{
					"destination" : [ "obj-7", 1 ],
					"source" : [ "obj-2", 0 ]
				}

			}
, 			{
				"patchline" : 				{
					"destination" : [ "obj-41", 3 ],
					"source" : [ "obj-20", 0 ]
				}

			}
, 			{
				"patchline" : 				{
					"destination" : [ "obj-6", 1 ],
					"source" : [ "obj-21", 0 ]
				}

			}
, 			{
				"patchline" : 				{
					"destination" : [ "obj-25", 0 ],
					"order" : 4,
					"source" : [ "obj-22", 0 ]
				}

			}
, 			{
				"patchline" : 				{
					"color" : [ 0.701960784313725, 0.701960784313725, 0.701960784313725, 0.0 ],
					"destination" : [ "obj-41", 0 ],
					"order" : 3,
					"source" : [ "obj-22", 0 ]
				}

			}
, 			{
				"patchline" : 				{
					"color" : [ 0.701960784313725, 0.701960784313725, 0.701960784313725, 0.0 ],
					"destination" : [ "obj-42", 0 ],
					"order" : 2,
					"source" : [ "obj-22", 0 ]
				}

			}
, 			{
				"patchline" : 				{
					"color" : [ 0.701960784313725, 0.701960784313725, 0.701960784313725, 0.0 ],
					"destination" : [ "obj-57", 0 ],
					"order" : 1,
					"source" : [ "obj-22", 0 ]
				}

			}
, 			{
				"patchline" : 				{
					"color" : [ 0.701960784313725, 0.701960784313725, 0.701960784313725, 0.0 ],
					"destination" : [ "obj-92", 0 ],
					"order" : 0,
					"source" : [ "obj-22", 0 ]
				}

			}
, 			{
				"patchline" : 				{
					"destination" : [ "obj-193", 0 ],
					"source" : [ "obj-23", 0 ]
				}

			}
, 			{
				"patchline" : 				{
					"destination" : [ "obj-29", 0 ],
					"source" : [ "obj-25", 0 ]
				}

			}
, 			{
				"patchline" : 				{
					"destination" : [ "obj-193", 0 ],
					"source" : [ "obj-28", 0 ]
				}

			}
, 			{
				"patchline" : 				{
					"destination" : [ "obj-1", 1 ],
					"order" : 1,
					"source" : [ "obj-29", 0 ]
				}

			}
, 			{
				"patchline" : 				{
					"color" : [ 0.701960784313725, 0.701960784313725, 0.701960784313725, 0.0 ],
					"destination" : [ "obj-60", 0 ],
					"order" : 0,
					"source" : [ "obj-29", 0 ]
				}

			}
, 			{
				"patchline" : 				{
					"destination" : [ "obj-23", 0 ],
					"source" : [ "obj-30", 1 ]
				}

			}
, 			{
				"patchline" : 				{
					"destination" : [ "obj-28", 0 ],
					"source" : [ "obj-30", 0 ]
				}

			}
, 			{
				"patchline" : 				{
					"destination" : [ "obj-1", 0 ],
					"order" : 1,
					"source" : [ "obj-33", 0 ]
				}

			}
, 			{
				"patchline" : 				{
					"destination" : [ "obj-71", 0 ],
					"order" : 0,
					"source" : [ "obj-33", 0 ]
				}

			}
, 			{
				"patchline" : 				{
					"destination" : [ "obj-1", 2 ],
					"source" : [ "obj-34", 0 ]
				}

			}
, 			{
				"patchline" : 				{
					"destination" : [ "obj-43", 0 ],
					"source" : [ "obj-39", 0 ]
				}

			}
, 			{
				"patchline" : 				{
					"destination" : [ "obj-35", 0 ],
					"source" : [ "obj-4", 0 ]
				}

			}
, 			{
				"patchline" : 				{
					"destination" : [ "obj-1", 3 ],
					"order" : 1,
					"source" : [ "obj-41", 0 ]
				}

			}
, 			{
				"patchline" : 				{
					"color" : [ 0.701960784313725, 0.701960784313725, 0.701960784313725, 0.0 ],
					"destination" : [ "obj-61", 0 ],
					"order" : 0,
					"source" : [ "obj-41", 0 ]
				}

			}
, 			{
				"patchline" : 				{
					"destination" : [ "obj-21", 0 ],
					"order" : 1,
					"source" : [ "obj-42", 0 ]
				}

			}
, 			{
				"patchline" : 				{
					"destination" : [ "obj-4", 1 ],
					"order" : 2,
					"source" : [ "obj-42", 0 ]
				}

			}
, 			{
				"patchline" : 				{
					"destination" : [ "obj-62", 0 ],
					"order" : 0,
					"source" : [ "obj-42", 0 ]
				}

			}
, 			{
				"patchline" : 				{
					"destination" : [ "obj-45", 0 ],
					"order" : 0,
					"source" : [ "obj-43", 0 ]
				}

			}
, 			{
				"patchline" : 				{
					"destination" : [ "obj-49", 0 ],
					"order" : 1,
					"source" : [ "obj-43", 0 ]
				}

			}
, 			{
				"patchline" : 				{
					"destination" : [ "obj-193", 0 ],
					"source" : [ "obj-45", 0 ]
				}

			}
, 			{
				"patchline" : 				{
					"destination" : [ "obj-77", 0 ],
					"source" : [ "obj-48", 0 ]
				}

			}
, 			{
				"patchline" : 				{
					"destination" : [ "obj-23", 0 ],
					"source" : [ "obj-49", 0 ]
				}

			}
, 			{
				"patchline" : 				{
					"destination" : [ "obj-36", 0 ],
					"source" : [ "obj-5", 0 ]
				}

			}
, 			{
				"patchline" : 				{
					"destination" : [ "obj-42", 3 ],
					"source" : [ "obj-50", 0 ]
				}

			}
, 			{
				"patchline" : 				{
					"destination" : [ "obj-59", 2 ],
					"source" : [ "obj-51", 0 ]
				}

			}
, 			{
				"patchline" : 				{
					"destination" : [ "obj-51", 0 ],
					"source" : [ "obj-52", 0 ]
				}

			}
, 			{
				"patchline" : 				{
					"destination" : [ "obj-52", 0 ],
					"source" : [ "obj-53", 0 ]
				}

			}
, 			{
				"patchline" : 				{
					"destination" : [ "obj-50", 0 ],
					"source" : [ "obj-54", 0 ]
				}

			}
, 			{
				"patchline" : 				{
					"destination" : [ "obj-56", 0 ],
					"source" : [ "obj-55", 0 ]
				}

			}
, 			{
				"patchline" : 				{
					"destination" : [ "obj-57", 3 ],
					"source" : [ "obj-56", 0 ]
				}

			}
, 			{
				"patchline" : 				{
					"destination" : [ "obj-2", 0 ],
					"order" : 1,
					"source" : [ "obj-57", 0 ]
				}

			}
, 			{
				"patchline" : 				{
					"destination" : [ "obj-5", 1 ],
					"order" : 2,
					"source" : [ "obj-57", 0 ]
				}

			}
, 			{
				"patchline" : 				{
					"destination" : [ "obj-63", 0 ],
					"order" : 0,
					"source" : [ "obj-57", 0 ]
				}

			}
, 			{
				"patchline" : 				{
					"destination" : [ "obj-20", 0 ],
					"source" : [ "obj-58", 0 ]
				}

			}
, 			{
				"patchline" : 				{
					"destination" : [ "obj-64", 0 ],
					"order" : 0,
					"source" : [ "obj-59", 1 ]
				}

			}
, 			{
				"patchline" : 				{
					"destination" : [ "obj-66", 0 ],
					"order" : 0,
					"source" : [ "obj-59", 0 ]
				}

			}
, 			{
				"patchline" : 				{
					"destination" : [ "obj-67", 0 ],
					"order" : 1,
					"source" : [ "obj-59", 1 ]
				}

			}
, 			{
				"patchline" : 				{
					"destination" : [ "obj-68", 0 ],
					"order" : 1,
					"source" : [ "obj-59", 0 ]
				}

			}
, 			{
				"patchline" : 				{
					"destination" : [ "obj-37", 0 ],
					"source" : [ "obj-6", 0 ]
				}

			}
, 			{
				"patchline" : 				{
					"destination" : [ "obj-59", 1 ],
					"source" : [ "obj-60", 0 ]
				}

			}
, 			{
				"patchline" : 				{
					"destination" : [ "obj-59", 3 ],
					"source" : [ "obj-61", 0 ]
				}

			}
, 			{
				"patchline" : 				{
					"destination" : [ "obj-68", 1 ],
					"order" : 1,
					"source" : [ "obj-62", 0 ]
				}

			}
, 			{
				"patchline" : 				{
					"destination" : [ "obj-70", 0 ],
					"order" : 0,
					"source" : [ "obj-62", 0 ]
				}

			}
, 			{
				"patchline" : 				{
					"destination" : [ "obj-67", 1 ],
					"order" : 1,
					"source" : [ "obj-63", 0 ]
				}

			}
, 			{
				"patchline" : 				{
					"destination" : [ "obj-69", 0 ],
					"order" : 0,
					"source" : [ "obj-63", 0 ]
				}

			}
, 			{
				"patchline" : 				{
					"destination" : [ "obj-38", 0 ],
					"source" : [ "obj-64", 0 ]
				}

			}
, 			{
				"patchline" : 				{
					"destination" : [ "obj-16", 0 ],
					"source" : [ "obj-65", 0 ]
				}

			}
, 			{
				"patchline" : 				{
					"destination" : [ "obj-37", 0 ],
					"source" : [ "obj-66", 0 ]
				}

			}
, 			{
				"patchline" : 				{
					"destination" : [ "obj-36", 0 ],
					"source" : [ "obj-67", 0 ]
				}

			}
, 			{
				"patchline" : 				{
					"destination" : [ "obj-35", 0 ],
					"source" : [ "obj-68", 0 ]
				}

			}
, 			{
				"patchline" : 				{
					"destination" : [ "obj-64", 1 ],
					"source" : [ "obj-69", 0 ]
				}

			}
, 			{
				"patchline" : 				{
					"destination" : [ "obj-38", 0 ],
					"source" : [ "obj-7", 0 ]
				}

			}
, 			{
				"patchline" : 				{
					"destination" : [ "obj-66", 1 ],
					"source" : [ "obj-70", 0 ]
				}

			}
, 			{
				"patchline" : 				{
					"destination" : [ "obj-48", 0 ],
					"source" : [ "obj-71", 0 ]
				}

			}
, 			{
				"patchline" : 				{
					"destination" : [ "obj-51", 0 ],
					"source" : [ "obj-72", 0 ]
				}

			}
, 			{
				"patchline" : 				{
					"destination" : [ "obj-86", 0 ],
					"source" : [ "obj-73", 0 ]
				}

			}
, 			{
				"patchline" : 				{
					"destination" : [ "obj-30", 0 ],
					"source" : [ "obj-77", 0 ]
				}

			}
, 			{
				"patchline" : 				{
					"destination" : [ "obj-59", 0 ],
					"source" : [ "obj-86", 0 ]
				}

			}
, 			{
				"patchline" : 				{
					"destination" : [ "obj-72", 0 ],
					"source" : [ "obj-86", 1 ]
				}

			}
, 			{
				"patchline" : 				{
					"destination" : [ "obj-87", 0 ],
					"source" : [ "obj-86", 2 ]
				}

			}
, 			{
				"patchline" : 				{
					"destination" : [ "obj-86", 0 ],
					"source" : [ "obj-89", 0 ]
				}

			}
, 			{
				"patchline" : 				{
					"destination" : [ "obj-89", 0 ],
					"source" : [ "obj-92", 0 ]
				}

			}
 ]
	}

}
